{
  "accessors": [
    {
      "bufferView": 1,
      "componentType": 5126,
      "count": 8579,
      "max": [
        2.69401216506958,
        -1.4293954372406006,
        1.072977066040039
      ],
      "min": [
        1.4455151557922363,
        -2.7104718685150146,
        -0.16134895384311676
      ],
      "type": "VEC3"
    },
    {
      "bufferView": 1,
      "byteOffset": 102948,
      "componentType": 5126,
      "count": 8579,
      "max": [
        0.9996181726455688,
        0.9999579787254333,
        0.9999909400939941
      ],
      "min": [
        -0.9999586343765259,
        -0.9996055364608765,
        -0.9998441338539124
      ],
      "type": "VEC3"
    },
    {
      "bufferView": 2,
      "componentType": 5126,
      "count": 8579,
      "max": [
        0.9882352948188782,
        0.8039215803146362,
        0.49803921580314636,
        1.0
      ],
      "min": [
        0.6000000238418579,
        0.4274509847164154,
        0.4274509847164154,
        1.0
      ],
      "type": "VEC4"
    },
    {
      "bufferView": 0,
      "componentType": 5125,
      "count": 49548,
      "type": "SCALAR"
    },
    {
      "bufferView": 1,
      "byteOffset": 205896,
      "componentType": 5126,
      "count": 10199,
      "max": [
        -1.5693552494049072,
        0.9447040557861328,
        1.4824566841125488
      ],
      "min": [
        -2.9361557960510254,
        -0.4241361916065216,
        0.09440436959266663
      ],
      "type": "VEC3"
    },
    {
      "bufferView": 1,
      "byteOffset": 328284,
      "componentType": 5126,
      "count": 10199,
      "max": [
        0.9998518824577332,
        0.9994784593582153,
        0.9995021820068359
      ],
      "min": [
        -0.999324381351471,
        -0.9999648332595825,
        -0.9999024271965027
      ],
      "type": "VEC3"
    },
    {
      "bufferView": 2,
      "byteOffset": 137264,
      "componentType": 5126,
      "count": 10199,
      "max": [
        0.9882352948188782,
        0.8039215803146362,
        0.49803921580314636,
        1.0
      ],
      "min": [
        0.6000000238418579,
        0.4274509847164154,
        0.4274509847164154,
        1.0
      ],
      "type": "VEC4"
    },
    {
      "bufferView": 0,
      "byteOffset": 198192,
      "componentType": 5125,
      "count": 59166,
      "type": "SCALAR"
    },
    {
      "bufferView": 1,
      "byteOffset": 450672,
      "componentType": 5126,
      "count": 14012,
      "max": [
        3.458357810974121,
        0.006406859960407019,
        1.509859561920166
      ],
      "min": [
        1.838207721710205,
        -1.709601879119873,
        -0.1333155632019043
      ],
      "type": "VEC3"
    },
    {
      "bufferView": 1,
      "byteOffset": 618816,
      "componentType": 5126,
      "count": 14012,
      "max": [
        0.9999842047691345,
        0.9999842643737793,
        0.999056875705719
      ],
      "min": [
        -0.9996569156646729,
        -0.9998409748077393,
        -0.9998460412025452
      ],
      "type": "VEC3"
    },
    {
      "bufferView": 2,
      "byteOffset": 300448,
      "componentType": 5126,
      "count": 14012,
      "max": [
        0.9882352948188782,
        0.8039215803146362,
        0.49803921580314636,
        1.0
      ],
      "min": [
        0.6000000238418579,
        0.4274509847164154,
        0.4274509847164154,
        1.0
      ],
      "type": "VEC4"
    },
    {
      "bufferView": 0,
      "byteOffset": 434856,
      "componentType": 5125,
      "count": 81534,
      "type": "SCALAR"
    },
    {
      "bufferView": 1,
      "byteOffset": 786960,
      "componentType": 5126,
      "count": 1441,
      "max": [
        1.6257833242416382,
        0.6288744807243347,
        1.1077256202697754
      ],
      "min": [
        -0.0652373731136322,
        0.14717592298984528,
        -0.04965278133749962
      ],
      "type": "VEC3"
    },
    {
      "bufferView": 1,
      "byteOffset": 804252,
      "componentType": 5126,
      "count": 1441,
      "max": [
        0.9960033893585205,
        0.9997999668121338,
        0.995705783367157
      ],
      "min": [
        -0.9027306437492371,
        -0.9998190999031067,
        -0.9992979168891907
      ],
      "type": "VEC3"
    },
    {
      "bufferView": 2,
      "byteOffset": 524640,
      "componentType": 5126,
      "count": 1441,
      "max": [
        0.9960784316062927,
        0.9960784316062927,
        0.9960784316062927,
        1.0
      ],
      "min": [
        0.9764705896377563,
        0.7411764860153198,
        0.501960813999176,
        1.0
      ],
      "type": "VEC4"
    },
    {
      "bufferView": 0,
      "byteOffset": 760992,
      "componentType": 5125,
      "count": 8520,
      "type": "SCALAR"
    },
    {
      "bufferView": 1,
      "byteOffset": 821544,
      "componentType": 5126,
      "count": 2970,
      "max": [
        0.6427699327468872,
        -0.48383790254592896,
        0.7067891955375671
      ],
      "min": [
        -0.6613209247589111,
        -1.0756409168243408,
        -0.1441837102174759
      ],
      "type": "VEC3"
    },
    {
      "bufferView": 1,
      "byteOffset": 857184,
      "componentType": 5126,
      "count": 2970,
      "max": [
        0.9999993443489075,
        0.9995182752609253,
        0.9934810996055603
      ],
      "min": [
        -0.9999878406524658,
        -0.9998385906219482,
        -0.9999457001686096
      ],
      "type": "VEC3"
    },
    {
      "bufferView": 2,
      "byteOffset": 547696,
      "componentType": 5126,
      "count": 2970,
      "max": [
        1.0,
        1.0,
        1.0,
        1.0
      ],
      "min": [
        1.0,
        1.0,
        1.0,
        1.0
      ],
      "type": "VEC4"
    },
    {
      "bufferView": 0,
      "byteOffset": 795072,
      "componentType": 5125,
      "count": 17796,
      "type": "SCALAR"
    },
    {
      "bufferView": 1,
      "byteOffset": 892824,
      "componentType": 5126,
      "count": 12291,
      "max": [
        1.9113444089889526,
        0.013919970020651817,
        4.5445170402526855
      ],
      "min": [
        -1.9113434553146362,
        -0.6581395268440247,
        2.3592147827148438
      ],
      "type": "VEC3"
    },
    {
      "bufferView": 1,
      "byteOffset": 1040316,
      "componentType": 5126,
      "count": 12291,
      "max": [
        0.999995768070221,
        0.9989692568778992,
        0.9983423948287964
      ],
      "min": [
        -0.9999966621398926,
        -0.9999607801437378,
        -0.9963260889053345
      ],
      "type": "VEC3"
    },
    {
      "bufferView": 2,
      "byteOffset": 595216,
      "componentType": 5126,
      "count": 12291,
      "max": [
        0.9960784316062927,
        0.9960784316062927,
        0.9960784316062927,
        1.0
      ],
      "min": [
        0.9764705896377563,
        0.7411764860153198,
        0.501960813999176,
        1.0
      ],
      "type": "VEC4"
    },
    {
      "bufferView": 0,
      "byteOffset": 866256,
      "componentType": 5125,
      "count": 73500,
      "type": "SCALAR"
    },
    {
      "bufferView": 1,
      "byteOffset": 1187808,
      "componentType": 5126,
      "count": 3472,
      "max": [
        1.4347245693206787,
        -1.2541340589523315,
        2.5409505367279053
      ],
      "min": [
        -1.4319632053375244,
        -1.847550392150879,
        1.976480484008789
      ],
      "type": "VEC3"
    },
    {
      "bufferView": 1,
      "byteOffset": 1229472,
      "componentType": 5126,
      "count": 3472,
      "max": [
        0.9949577450752258,
        0.9997892379760742,
        0.9995129704475403
      ],
      "min": [
        -0.9923073053359985,
        -0.9799673557281494,
        -0.9995816946029663
      ],
      "type": "VEC3"
    },
    {
      "bufferView": 2,
      "byteOffset": 791872,
      "componentType": 5126,
      "count": 3472,
      "max": [
        0.42352941632270813,
        0.22745098173618317,
        0.019607843831181526,
        1.0
      ],
      "min": [
        0.42352941632270813,
        0.22745098173618317,
        0.019607843831181526,
        1.0
      ],
      "type": "VEC4"
    },
    {
      "bufferView": 0,
      "byteOffset": 1160256,
      "componentType": 5125,
      "count": 16344,
      "type": "SCALAR"
    },
    {
      "bufferView": 1,
      "byteOffset": 1271136,
      "componentType": 5126,
      "count": 35894,
      "max": [
        1.7845834493637085,
        1.2017797231674194,
        4.032068729400635
      ],
      "min": [
        -1.7845114469528198,
        -1.8876975774765015,
        1.0242793560028076
      ],
      "type": "VEC3"
    },
    {
      "bufferView": 1,
      "byteOffset": 1701864,
      "componentType": 5126,
      "count": 35894,
      "max": [
        0.9999670386314392,
        0.9999683499336243,
        0.9999710321426392
      ],
      "min": [
        -0.9999720454216003,
        -0.9998735785484314,
        -0.9999854564666748
      ],
      "type": "VEC3"
    },
    {
      "bufferView": 2,
      "byteOffset": 847424,
      "componentType": 5126,
      "count": 35894,
      "max": [
        0.9960784316062927,
        0.9960784316062927,
        0.9960784316062927,
        1.0
      ],
      "min": [
        0.42352941632270813,
        0.22745098173618317,
        0.019607843831181526,
        1.0
      ],
      "type": "VEC4"
    },
    {
      "bufferView": 0,
      "byteOffset": 1225632,
      "componentType": 5125,
      "count": 215352,
      "type": "SCALAR"
    },
    {
      "bufferView": 1,
      "byteOffset": 2132592,
      "componentType": 5126,
      "count": 10984,
      "max": [
        1.0150288343429565,
        0.3557503819465637,
        1.431071162223816
      ],
      "min": [
        -1.0150519609451294,
        -1.0011165142059326,
        -0.1223892793059349
      ],
      "type": "VEC3"
    },
    {
      "bufferView": 1,
      "byteOffset": 2264400,
      "componentType": 5126,
      "count": 10984,
      "max": [
        0.9999417066574097,
        0.9999075531959534,
        0.9996960759162903
      ],
      "min": [
        -0.9997758269309998,
        -0.999822735786438,
        -0.9999542236328125
      ],
      "type": "VEC3"
    },
    {
      "bufferView": 2,
      "byteOffset": 1421728,
      "componentType": 5126,
      "count": 10984,
      "max": [
        0.9960784316062927,
        0.9960784316062927,
        0.9960784316062927,
        1.0
      ],
      "min": [
        0.9764705896377563,
        0.7411764860153198,
        0.501960813999176,
        1.0
      ],
      "type": "VEC4"
    },
    {
      "bufferView": 0,
      "byteOffset": 2087040,
      "componentType": 5125,
      "count": 65892,
      "type": "SCALAR"
    }
  ],
  "asset": {
    "extras": {
      "author": "jiayingc (https://sketchfab.com/jiayingc)",
      "license": "CC-BY-4.0 (http://creativecommons.org/licenses/by/4.0/)",
      "source": "https://sketchfab.com/3d-models/cute-cat-with-strawberries-769a5fa758de449e8154a6bbd33e9220",
      "title": "Cute Cat with Strawberries"
    },
    "generator": "Sketchfab-12.66.0",
    "version": "2.0"
  },
  "bufferViews": [
    {
      "buffer": 0,
      "byteLength": 2350608,
      "name": "floatBufferViews",
      "target": 34963
    },
    {
      "buffer": 0,
      "byteLength": 2396208,
      "byteOffset": 2350608,
      "byteStride": 12,
      "name": "floatBufferViews",
      "target": 34962
    },
    {
      "buffer": 0,
      "byteLength": 1597472,
      "byteOffset": 4746816,
      "byteStride": 16,
      "name": "floatBufferViews",
      "target": 34962
    }
  ],
  "buffers": [
    {
      "byteLength": 6344288,
      "uri": "scene.bin"
    }
  ],
  "materials": [
    {
      "doubleSided": true,
      "name": "material_0",
      "pbrMetallicRoughness": {
        "metallicFactor": 0.0,
        "roughnessFactor": 0.6
      }
    },
    {
      "doubleSided": true,
      "name": "material_1",
      "pbrMetallicRoughness": {
        "metallicFactor": 0.0,
        "roughnessFactor": 0.6
      }
    },
    {
      "doubleSided": true,
      "name": "material_2",
      "pbrMetallicRoughness": {
        "metallicFactor": 0.0,
        "roughnessFactor": 0.6
      }
    },
    {
      "doubleSided": true,
      "name": "material_3",
      "pbrMetallicRoughness": {
        "metallicFactor": 0.0,
        "roughnessFactor": 0.6
      }
    },
    {
      "doubleSided": true,
      "name": "material_4",
      "pbrMetallicRoughness": {
        "metallicFactor": 0.0,
        "roughnessFactor": 0.6
      }
    },
    {
      "doubleSided": true,
      "name": "material_5",
      "pbrMetallicRoughness": {
        "metallicFactor": 0.0,
        "roughnessFactor": 0.6
      }
    },
    {
      "doubleSided": true,
      "name": "material_6",
      "pbrMetallicRoughness": {
        "metallicFactor": 0.0,
        "roughnessFactor": 0.6
      }
    },
    {
      "doubleSided": true,
      "name": "material_7",
      "pbrMetallicRoughness": {
        "metallicFactor": 0.0,
        "roughnessFactor": 0.6
      }
    },
    {
      "doubleSided": true,
      "name": "material_8",
      "pbrMetallicRoughness": {
        "metallicFactor": 0.0,
        "roughnessFactor": 0.6
      }
    }
  ],
  "meshes": [
    {
      "name": "Object_0",
      "primitives": [
        {
          "attributes": {
            "COLOR_0": 2,
            "NORMAL": 1,
            "POSITION": 0
          },
          "indices": 3,
          "material": 8,
          "mode": 4
        }
      ]
    },
    {
      "name": "Object_1",
      "primitives": [
        {
          "attributes": {
            "COLOR_0": 6,
            "NORMAL": 5,
            "POSITION": 4
          },
          "indices": 7,
          "material": 7,
          "mode": 4
        }
      ]
    },
    {
      "name": "Object_2",
      "primitives": [
        {
          "attributes": {
            "COLOR_0": 10,
            "NORMAL": 9,
            "POSITION": 8
          },
          "indices": 11,
          "material": 6,
          "mode": 4
        }
      ]
    },
    {
      "name": "Object_3",
      "primitives": [
        {
          "attributes": {
            "COLOR_0": 14,
            "NORMAL": 13,
            "POSITION": 12
          },
          "indices": 15,
          "material": 5,
          "mode": 4
        }
      ]
    },
    {
      "name": "Object_4",
      "primitives": [
        {
          "attributes": {
            "COLOR_0": 18,
            "NORMAL": 17,
            "POSITION": 16
          },
          "indices": 19,
          "material": 4,
          "mode": 4
        }
      ]
    },
    {
      "name": "Object_5",
      "primitives": [
        {
          "attributes": {
            "COLOR_0": 22,
            "NORMAL": 21,
            "POSITION": 20
          },
          "indices": 23,
          "material": 3,
          "mode": 4
        }
      ]
    },
    {
      "name": "Object_6",
      "primitives": [
        {
          "attributes": {
            "COLOR_0": 26,
            "NORMAL": 25,
            "POSITION": 24
          },
          "indices": 27,
          "material": 2,
          "mode": 4
        }
      ]
    },
    {
      "name": "Object_7",
      "primitives": [
        {
          "attributes": {
            "COLOR_0": 30,
            "NORMAL": 29,
            "POSITION": 28
          },
          "indices": 31,
          "material": 1,
          "mode": 4
        }
      ]
    },
    {
      "name": "Object_8",
      "primitives": [
        {
          "attributes": {
            "COLOR_0": 34,
            "NORMAL": 33,
            "POSITION": 32
          },
          "indices": 35,
          "material": 0,
          "mode": 4
        }
      ]
    }
  ],
  "nodes": [
    {
      "children": [
        1
      ],
      "matrix": [
        1.0,
        0.0,
        0.0,
        0.0,
        0.0,
        2.220446049250313e-16,
        -1.0,
        0.0,
        0.0,
        1.0,
        2.220446049250313e-16,
        0.0,
        0.0,
        0.0,
        0.0,
        1.0
      ],
      "name": "Sketchfab_model"
    },
    {
      "children": [
        2,
        4,
        6,
        8,
        10,
        12,
        14,
        16,
        18
      ],
      "name": "zbrush_concat.osgb.cleaner.materialmerger.gles"
    },
    {
      "children": [
        3
      ],
      "name": "/sketchfab-data/processing/models/b00a7ba23db34fa68bbccb2c1f3d3d5c/769a5fa758de449e8154a6bbd33e9220/ca4664da0d224136adc4c7d8a42c21d9/preprocess/SubTool-8-10467438.OBJ"
    },
    {
      "mesh": 0,
      "name": "Object_3"
    },
    {
      "children": [
        5
      ],
      "name": "/sketchfab-data/processing/models/b00a7ba23db34fa68bbccb2c1f3d3d5c/769a5fa758de449e8154a6bbd33e9220/ca4664da0d224136adc4c7d8a42c21d9/preprocess/SubTool-7-10467438.OBJ"
    },
    {
      "mesh": 1,
      "name": "Object_5"
    },
    {
      "children": [
        7
      ],
      "name": "/sketchfab-data/processing/models/b00a7ba23db34fa68bbccb2c1f3d3d5c/769a5fa758de449e8154a6bbd33e9220/ca4664da0d224136adc4c7d8a42c21d9/preprocess/SubTool-6-10467438.OBJ"
    },
    {
      "mesh": 2,
      "name": "Object_7"
    },
    {
      "children": [
        9
      ],
      "name": "/sketchfab-data/processing/models/b00a7ba23db34fa68bbccb2c1f3d3d5c/769a5fa758de449e8154a6bbd33e9220/ca4664da0d224136adc4c7d8a42c21d9/preprocess/SubTool-5-7072737.OBJ"
    },
    {
      "mesh": 3,
      "name": "Object_9"
    },
    {
      "children": [
        11
      ],
      "name": "/sketchfab-data/processing/models/b00a7ba23db34fa68bbccb2c1f3d3d5c/769a5fa758de449e8154a6bbd33e9220/ca4664da0d224136adc4c7d8a42c21d9/preprocess/SubTool-4-7072737.OBJ"
    },
    {
      "mesh": 4,
      "name": "Object_11"
    },
    {
      "children": [
        13
      ],
      "name": "/sketchfab-data/processing/models/b00a7ba23db34fa68bbccb2c1f3d3d5c/769a5fa758de449e8154a6bbd33e9220/ca4664da0d224136adc4c7d8a42c21d9/preprocess/SubTool-3-7072737.OBJ"
    },
    {
      "mesh": 5,
      "name": "Object_13"
    },
    {
      "children": [
        15
      ],
      "name": "/sketchfab-data/processing/models/b00a7ba23db34fa68bbccb2c1f3d3d5c/769a5fa758de449e8154a6bbd33e9220/ca4664da0d224136adc4c7d8a42c21d9/preprocess/SubTool-2-3874942.OBJ"
    },
    {
      "mesh": 6,
      "name": "Object_15"
    },
    {
      "children": [
        17
      ],
      "name": "/sketchfab-data/processing/models/b00a7ba23db34fa68bbccb2c1f3d3d5c/769a5fa758de449e8154a6bbd33e9220/ca4664da0d224136adc4c7d8a42c21d9/preprocess/SubTool-1-7072737.OBJ"
    },
    {
      "mesh": 7,
      "name": "Object_17"
    },
    {
      "children": [
        19
      ],
      "name": "/sketchfab-data/processing/models/b00a7ba23db34fa68bbccb2c1f3d3d5c/769a5fa758de449e8154a6bbd33e9220/ca4664da0d224136adc4c7d8a42c21d9/preprocess/SubTool-0-10233600.OBJ"
    },
    {
      "mesh": 8,
      "name": "Object_19"
    }
  ],
  "scene": 0,
  "scenes": [
    {
      "name": "Sketchfab_Scene",
      "nodes": [
        0
      ]
    }
  ]
}
